:FULLY-SPECIFIED
:FORCE-ALL-JOINTS-BE-3DOF
:DEGREES
1733
root -5.243 15.5666 27.06 903.488 -0.410356 183.408
lfemur -47.4258 9.48099 -17.5973
ltibia 53.2094 0 0
lfoot -16.6283 27.8828 0
ltoes -9.44116 0 0
rfemur -18.3742 -13.6788 14.0901
rtibia 62.1824 0 0
rfoot -9.02508 -26.3451 0
rtoes 14.4939 0 0
lowerback 16.0013 3.66439 -7.73388
upperback -0.732692 3.56727 1.15272
thorax -10.5206 2.18907 4.63026
lowerneck 5.6317 -16.8905 -18.8175
upperneck -3.93535 -24.0415 26.1437
head 3.3313 -12.335 9.7411
lclavicle 1.22684e-13 4.50426e-14 0
lhumerus -58.3879 -36.0548 119.805
lradius 99.1622 0 0
lwrist 50.4483 0 0
lhand 0.358346 35.873 0
lfingers 7.12502 0 0
lthumb 25.9447 64.2546 0
rclavicle 1.22684e-13 4.50426e-14 0
rhumerus 13.9424 42.824 -38.3884
rradius 132.828 0 0
rwrist -16.191 0 0
rhand 8.04888 -27.9337 0
rfingers 7.12502 0 0
rthumb 33.3035 -55.1864 0
1734
root -5.17534 15.5688 27.1119 902.842 -0.130493 182.97
lfemur -46.6494 7.9201 -16.8387
ltibia 52.8158 0 0
lfoot -16.7586 26.8509 0
ltoes -11.2295 0 0
rfemur -19.1956 -13.6047 14.3191
rtibia 61.6707 0 0
rfoot -9.35448 -26.2286 0
rtoes 14.2032 0 0
lowerback 16.1899 3.78572 -8.03015
upperback -0.629962 3.65217 0.958469
thorax -10.5329 2.23768 4.55394
lowerneck 5.6836 -16.9812 -18.9508
upperneck -3.97092 -24.1436 26.2749
head 3.34495 -12.3712 9.7995
lclavicle 1.26053e-13 4.47945e-14 0
lhumerus -58.625 -34.8231 118.852
lradius 99.5044 0 0
lwrist 50.6978 0 0
lhand 0.412606 35.1528 0
lfingers 7.12502 0 0
lthumb 25.9969 63.5295 0
rclavicle 1.26053e-13 4.47945e-14 0
rhumerus 10.2839 43.2628 -40.2337
rradius 133.439 0 0
rwrist -16.085 0 0
rhand 8.12063 -28.1419 0
rfingers 7.12502 0 0
rthumb 33.3738 -55.4035 0
1735
root -5.10767 15.571 27.1637 902.264 0.220471 182.624
lfemur -45.8096 6.37323 -16.0529
ltibia 52.5237 0 0
lfoot -16.8885 25.7888 0
ltoes -13.0915 0 0
rfemur -20.1237 -13.5825 14.6046
rtibia 61.1748 0 0
rfoot -9.7069 -26.0846 0
rtoes 13.821 0 0
lowerback 16.3796 3.90368 -8.30365
upperback -0.524705 3.73668 0.770551
thorax -10.5381 2.28448 4.47323
lowerneck 5.71543 -17.0419 -19.0501
upperneck -3.98864 -24.2009 26.3593
head 3.35255 -12.384 9.84197
lclavicle 1.28764e-13 4.42983e-14 0
lhumerus -58.7981 -33.5909 117.809
lradius 99.8455 0 0
lwrist 50.8008 0 0
lhand 0.403348 34.4259 0
lfingers 7.12502 0 0
lthumb 25.9879 62.8034 0
rclavicle 1.28764e-13 4.42983e-14 0
rhumerus 6.77532 43.5522 -42.0413
rradius 133.738 0 0
rwrist -15.9332 0 0
rhand 8.13619 -28.3641 0
rfingers 7.12502 0 0
rthumb 33.3897 -55.6369 0
1736
root -5.04 15.5731 27.2155 901.786 0.770133 182.393
lfemur -44.9101 4.84903 -15.2253
ltibia 52.3436 0 0
lfoot -17.0011 24.695 0
ltoes -15.0133 0 0
rfemur -21.1316 -13.6381 14.9506
rtibia 60.6801 0 0
rfoot -10.0819 -25.9179 0
rtoes 13.338 0 0
lowerback 16.5658 4.02419 -8.54616
upperback -0.419491 3.83039 0.586918
thorax -10.5371 2.33376 4.37891
lowerneck 5.71655 -17.0638 -19.1093
upperneck -3.97935 -24.2013 26.3892
head 3.35549 -12.3667 9.86543
lclavicle 1.30786e-13 4.35632e-14 0
lhumerus -58.9582 -32.3356 116.697
lradius 100.195 0 0
lwrist 50.7431 0 0
lhand 0.328912 33.6883 0
lfingers 7.12502 0 0
lthumb 25.9163 62.0724 0
rclavicle 1.30786e-13 4.35632e-14 0
rhumerus 3.40209 43.6688 -43.8253
rradius 133.659 0 0
rwrist -15.7075 0 0
rhand 8.066 -28.6003 0
rfingers 7.12502 0 0
rthumb 33.3231 -55.8909 0
1737
root -4.97234 15.5753 27.2673 901.442 1.64609 182.297
lfemur -43.9547 3.35612 -14.3412
ltibia 52.2859 0 0
lfoot -17.0794 23.5678 0
ltoes -16.9809 0 0
rfemur -22.192 -13.7973 15.3616
rtibia 60.1719 0 0
rfoot -10.4791 -25.7335 0
rtoes 12.7453 0 0
lowerback 16.7439 4.15318 -8.74944
upperback -0.31689 3.94285 0.405525
thorax -10.5307 2.38984 4.26174
lowerneck 5.67629 -17.0383 -19.1225
upperneck -3.93388 -24.1324 26.3572
head 3.35518 -12.3125 9.86679
lclavicle 1.32083e-13 4.25988e-14 0
lhumerus -59.1561 -31.0344 115.533
lradius 100.561 0 0
lwrist 50.5105 0 0
lhand 0.187641 32.9357 0
lfingers 7.12502 0 0
lthumb 25.7804 61.3323 0
rclavicle 1.32083e-13 4.25988e-14 0
rhumerus 0.149574 43.5888 -45.5995
rradius 133.135 0 0
rwrist -15.3803 0 0
rhand 7.8805 -28.8504 0
rfingers 7.12502 0 0
rthumb 33.1456 -56.1696 0
1738
root -4.90467 15.5775 27.3191 901.264 2.97592 182.36
lfemur -42.9471 1.90315 -13.3859
ltibia 52.361 0 0
lfoot -17.1066 22.4057 0
ltoes -18.9802 0 0
rfemur -23.278 -14.086 15.8416
rtibia 59.6355 0 0
rfoot -10.8981 -25.5361 0
rtoes 12.0336 0 0
lowerback 16.9093 4.29658 -8.90526
upperback -0.219471 4.08364 0.224329
thorax -10.5198 2.45702 4.11249
lowerneck 5.584 -16.9566 -19.0837
upperneck -3.84304 -23.982 26.2555
head 3.35301 -12.2146 9.84295
lclavicle 1.32623e-13 4.14144e-14 0
lhumerus -59.4429 -29.6647 114.337
lradius 100.954 0 0
lwrist 50.0888 0 0
lhand -0.022123 32.1639 0
lfingers 7.12502 0 0
lthumb 25.5786 60.5791 0
rclavicle 1.32623e-13 4.14144e-14 0
rhumerus -2.99689 43.2887 -47.3779
rradius 132.1 0 0
rwrist -14.9237 0 0
rhand 7.55014 -29.1143 0
rfingers 7.12502 0 0
rthumb 32.8289 -56.4772 0
